<?xml version="1.0" encoding="utf-8" standalone="no"?>
<!DOCTYPE svg PUBLIC "-//W3C//DTD SVG 1.1//EN"
  "http://www.w3.org/Graphics/SVG/1.1/DTD/svg11.dtd">
<svg xmlns:xlink="http://www.w3.org/1999/xlink" width="540pt" height="252pt" viewBox="0 0 540 252" xmlns="http://www.w3.org/2000/svg" version="1.1">
 <metadata>
  <rdf:RDF xmlns:dc="http://purl.org/dc/elements/1.1/" xmlns:cc="http://creativecommons.org/ns#" xmlns:rdf="http://www.w3.org/1999/02/22-rdf-syntax-ns#">
   <cc:Work>
    <dc:type rdf:resource="http://purl.org/dc/dcmitype/StillImage"/>
    <dc:date>2024-12-08T14:36:00.038959</dc:date>
    <dc:format>image/svg+xml</dc:format>
    <dc:creator>
     <cc:Agent>
      <dc:title>Matplotlib v3.9.2, https://matplotlib.org/</dc:title>
     </cc:Agent>
    </dc:creator>
   </cc:Work>
  </rdf:RDF>
 </metadata>
 <defs>
  <style type="text/css">*{stroke-linejoin: round; stroke-linecap: butt}</style>
 </defs>
 <g id="figure_1">
  <g id="patch_1">
   <path d="M 0 252 
L 540 252 
L 540 0 
L 0 0 
z
" style="fill: #ffffff"/>
  </g>
  <g id="axes_1">
   <g id="patch_2">
    <path d="M 38.904688 224.521875 
L 529.2 224.521875 
L 529.2 10.8 
L 38.904688 10.8 
z
" style="fill: #ffffff"/>
   </g>
   <g id="matplotlib.axis_1">
    <g id="xtick_1">
     <g id="line2d_1">
      <path d="M 61.190838 224.521875 
L 61.190838 10.8 
" clip-path="url(#p36effd2175)" style="fill: none; stroke: #b0b0b0; stroke-width: 0.8; stroke-linecap: square"/>
     </g>
     <g id="line2d_2">
      <defs>
       <path id="m1459c29093" d="M 0 0 
L 0 3.5 
" style="stroke: #000000; stroke-width: 0.8"/>
      </defs>
      <g>
       <use xlink:href="#m1459c29093" x="61.190838" y="224.521875" style="stroke: #000000; stroke-width: 0.8"/>
      </g>
     </g>
     <g id="text_1">
      <!-- −10.0 -->
      <g transform="translate(45.868182 239.120313) scale(0.1 -0.1)">
       <defs>
        <path id="DejaVuSans-2212" d="M 678 2272 
L 4684 2272 
L 4684 1741 
L 678 1741 
L 678 2272 
z
" transform="scale(0.015625)"/>
        <path id="DejaVuSans-31" d="M 794 531 
L 1825 531 
L 1825 4091 
L 703 3866 
L 703 4441 
L 1819 4666 
L 2450 4666 
L 2450 531 
L 3481 531 
L 3481 0 
L 794 0 
L 794 531 
z
" transform="scale(0.015625)"/>
        <path id="DejaVuSans-30" d="M 2034 4250 
Q 1547 4250 1301 3770 
Q 1056 3291 1056 2328 
Q 1056 1369 1301 889 
Q 1547 409 2034 409 
Q 2525 409 2770 889 
Q 3016 1369 3016 2328 
Q 3016 3291 2770 3770 
Q 2525 4250 2034 4250 
z
M 2034 4750 
Q 2819 4750 3233 4129 
Q 3647 3509 3647 2328 
Q 3647 1150 3233 529 
Q 2819 -91 2034 -91 
Q 1250 -91 836 529 
Q 422 1150 422 2328 
Q 422 3509 836 4129 
Q 1250 4750 2034 4750 
z
" transform="scale(0.015625)"/>
        <path id="DejaVuSans-2e" d="M 684 794 
L 1344 794 
L 1344 0 
L 684 0 
L 684 794 
z
" transform="scale(0.015625)"/>
       </defs>
       <use xlink:href="#DejaVuSans-2212"/>
       <use xlink:href="#DejaVuSans-31" x="83.789062"/>
       <use xlink:href="#DejaVuSans-30" x="147.412109"/>
       <use xlink:href="#DejaVuSans-2e" x="211.035156"/>
       <use xlink:href="#DejaVuSans-30" x="242.822266"/>
      </g>
     </g>
    </g>
    <g id="xtick_2">
     <g id="line2d_3">
      <path d="M 116.906214 224.521875 
L 116.906214 10.8 
" clip-path="url(#p36effd2175)" style="fill: none; stroke: #b0b0b0; stroke-width: 0.8; stroke-linecap: square"/>
     </g>
     <g id="line2d_4">
      <g>
       <use xlink:href="#m1459c29093" x="116.906214" y="224.521875" style="stroke: #000000; stroke-width: 0.8"/>
      </g>
     </g>
     <g id="text_2">
      <!-- −7.5 -->
      <g transform="translate(104.764808 239.120313) scale(0.1 -0.1)">
       <defs>
        <path id="DejaVuSans-37" d="M 525 4666 
L 3525 4666 
L 3525 4397 
L 1831 0 
L 1172 0 
L 2766 4134 
L 525 4134 
L 525 4666 
z
" transform="scale(0.015625)"/>
        <path id="DejaVuSans-35" d="M 691 4666 
L 3169 4666 
L 3169 4134 
L 1269 4134 
L 1269 2991 
Q 1406 3038 1543 3061 
Q 1681 3084 1819 3084 
Q 2600 3084 3056 2656 
Q 3513 2228 3513 1497 
Q 3513 744 3044 326 
Q 2575 -91 1722 -91 
Q 1428 -91 1123 -41 
Q 819 9 494 109 
L 494 744 
Q 775 591 1075 516 
Q 1375 441 1709 441 
Q 2250 441 2565 725 
Q 2881 1009 2881 1497 
Q 2881 1984 2565 2268 
Q 2250 2553 1709 2553 
Q 1456 2553 1204 2497 
Q 953 2441 691 2322 
L 691 4666 
z
" transform="scale(0.015625)"/>
       </defs>
       <use xlink:href="#DejaVuSans-2212"/>
       <use xlink:href="#DejaVuSans-37" x="83.789062"/>
       <use xlink:href="#DejaVuSans-2e" x="147.412109"/>
       <use xlink:href="#DejaVuSans-35" x="179.199219"/>
      </g>
     </g>
    </g>
    <g id="xtick_3">
     <g id="line2d_5">
      <path d="M 172.621591 224.521875 
L 172.621591 10.8 
" clip-path="url(#p36effd2175)" style="fill: none; stroke: #b0b0b0; stroke-width: 0.8; stroke-linecap: square"/>
     </g>
     <g id="line2d_6">
      <g>
       <use xlink:href="#m1459c29093" x="172.621591" y="224.521875" style="stroke: #000000; stroke-width: 0.8"/>
      </g>
     </g>
     <g id="text_3">
      <!-- −5.0 -->
      <g transform="translate(160.480185 239.120313) scale(0.1 -0.1)">
       <use xlink:href="#DejaVuSans-2212"/>
       <use xlink:href="#DejaVuSans-35" x="83.789062"/>
       <use xlink:href="#DejaVuSans-2e" x="147.412109"/>
       <use xlink:href="#DejaVuSans-30" x="179.199219"/>
      </g>
     </g>
    </g>
    <g id="xtick_4">
     <g id="line2d_7">
      <path d="M 228.336967 224.521875 
L 228.336967 10.8 
" clip-path="url(#p36effd2175)" style="fill: none; stroke: #b0b0b0; stroke-width: 0.8; stroke-linecap: square"/>
     </g>
     <g id="line2d_8">
      <g>
       <use xlink:href="#m1459c29093" x="228.336967" y="224.521875" style="stroke: #000000; stroke-width: 0.8"/>
      </g>
     </g>
     <g id="text_4">
      <!-- −2.5 -->
      <g transform="translate(216.195561 239.120313) scale(0.1 -0.1)">
       <defs>
        <path id="DejaVuSans-32" d="M 1228 531 
L 3431 531 
L 3431 0 
L 469 0 
L 469 531 
Q 828 903 1448 1529 
Q 2069 2156 2228 2338 
Q 2531 2678 2651 2914 
Q 2772 3150 2772 3378 
Q 2772 3750 2511 3984 
Q 2250 4219 1831 4219 
Q 1534 4219 1204 4116 
Q 875 4013 500 3803 
L 500 4441 
Q 881 4594 1212 4672 
Q 1544 4750 1819 4750 
Q 2544 4750 2975 4387 
Q 3406 4025 3406 3419 
Q 3406 3131 3298 2873 
Q 3191 2616 2906 2266 
Q 2828 2175 2409 1742 
Q 1991 1309 1228 531 
z
" transform="scale(0.015625)"/>
       </defs>
       <use xlink:href="#DejaVuSans-2212"/>
       <use xlink:href="#DejaVuSans-32" x="83.789062"/>
       <use xlink:href="#DejaVuSans-2e" x="147.412109"/>
       <use xlink:href="#DejaVuSans-35" x="179.199219"/>
      </g>
     </g>
    </g>
    <g id="xtick_5">
     <g id="line2d_9">
      <path d="M 284.052344 224.521875 
L 284.052344 10.8 
" clip-path="url(#p36effd2175)" style="fill: none; stroke: #b0b0b0; stroke-width: 0.8; stroke-linecap: square"/>
     </g>
     <g id="line2d_10">
      <g>
       <use xlink:href="#m1459c29093" x="284.052344" y="224.521875" style="stroke: #000000; stroke-width: 0.8"/>
      </g>
     </g>
     <g id="text_5">
      <!-- 0.0 -->
      <g transform="translate(276.100781 239.120313) scale(0.1 -0.1)">
       <use xlink:href="#DejaVuSans-30"/>
       <use xlink:href="#DejaVuSans-2e" x="63.623047"/>
       <use xlink:href="#DejaVuSans-30" x="95.410156"/>
      </g>
     </g>
    </g>
    <g id="xtick_6">
     <g id="line2d_11">
      <path d="M 339.76772 224.521875 
L 339.76772 10.8 
" clip-path="url(#p36effd2175)" style="fill: none; stroke: #b0b0b0; stroke-width: 0.8; stroke-linecap: square"/>
     </g>
     <g id="line2d_12">
      <g>
       <use xlink:href="#m1459c29093" x="339.76772" y="224.521875" style="stroke: #000000; stroke-width: 0.8"/>
      </g>
     </g>
     <g id="text_6">
      <!-- 2.5 -->
      <g transform="translate(331.816158 239.120313) scale(0.1 -0.1)">
       <use xlink:href="#DejaVuSans-32"/>
       <use xlink:href="#DejaVuSans-2e" x="63.623047"/>
       <use xlink:href="#DejaVuSans-35" x="95.410156"/>
      </g>
     </g>
    </g>
    <g id="xtick_7">
     <g id="line2d_13">
      <path d="M 395.483097 224.521875 
L 395.483097 10.8 
" clip-path="url(#p36effd2175)" style="fill: none; stroke: #b0b0b0; stroke-width: 0.8; stroke-linecap: square"/>
     </g>
     <g id="line2d_14">
      <g>
       <use xlink:href="#m1459c29093" x="395.483097" y="224.521875" style="stroke: #000000; stroke-width: 0.8"/>
      </g>
     </g>
     <g id="text_7">
      <!-- 5.0 -->
      <g transform="translate(387.531534 239.120313) scale(0.1 -0.1)">
       <use xlink:href="#DejaVuSans-35"/>
       <use xlink:href="#DejaVuSans-2e" x="63.623047"/>
       <use xlink:href="#DejaVuSans-30" x="95.410156"/>
      </g>
     </g>
    </g>
    <g id="xtick_8">
     <g id="line2d_15">
      <path d="M 451.198473 224.521875 
L 451.198473 10.8 
" clip-path="url(#p36effd2175)" style="fill: none; stroke: #b0b0b0; stroke-width: 0.8; stroke-linecap: square"/>
     </g>
     <g id="line2d_16">
      <g>
       <use xlink:href="#m1459c29093" x="451.198473" y="224.521875" style="stroke: #000000; stroke-width: 0.8"/>
      </g>
     </g>
     <g id="text_8">
      <!-- 7.5 -->
      <g transform="translate(443.246911 239.120313) scale(0.1 -0.1)">
       <use xlink:href="#DejaVuSans-37"/>
       <use xlink:href="#DejaVuSans-2e" x="63.623047"/>
       <use xlink:href="#DejaVuSans-35" x="95.410156"/>
      </g>
     </g>
    </g>
    <g id="xtick_9">
     <g id="line2d_17">
      <path d="M 506.913849 224.521875 
L 506.913849 10.8 
" clip-path="url(#p36effd2175)" style="fill: none; stroke: #b0b0b0; stroke-width: 0.8; stroke-linecap: square"/>
     </g>
     <g id="line2d_18">
      <g>
       <use xlink:href="#m1459c29093" x="506.913849" y="224.521875" style="stroke: #000000; stroke-width: 0.8"/>
      </g>
     </g>
     <g id="text_9">
      <!-- 10.0 -->
      <g transform="translate(495.781037 239.120313) scale(0.1 -0.1)">
       <use xlink:href="#DejaVuSans-31"/>
       <use xlink:href="#DejaVuSans-30" x="63.623047"/>
       <use xlink:href="#DejaVuSans-2e" x="127.246094"/>
       <use xlink:href="#DejaVuSans-30" x="159.033203"/>
      </g>
     </g>
    </g>
   </g>
   <g id="matplotlib.axis_2">
    <g id="ytick_1">
     <g id="line2d_19">
      <path d="M 38.904688 219.57972 
L 529.2 219.57972 
" clip-path="url(#p36effd2175)" style="fill: none; stroke: #b0b0b0; stroke-width: 0.8; stroke-linecap: square"/>
     </g>
     <g id="line2d_20">
      <defs>
       <path id="m564524cf69" d="M 0 0 
L -3.5 0 
" style="stroke: #000000; stroke-width: 0.8"/>
      </defs>
      <g>
       <use xlink:href="#m564524cf69" x="38.904688" y="219.57972" style="stroke: #000000; stroke-width: 0.8"/>
      </g>
     </g>
     <g id="text_10">
      <!-- −20 -->
      <g transform="translate(10.8 223.378939) scale(0.1 -0.1)">
       <use xlink:href="#DejaVuSans-2212"/>
       <use xlink:href="#DejaVuSans-32" x="83.789062"/>
       <use xlink:href="#DejaVuSans-30" x="147.412109"/>
      </g>
     </g>
    </g>
    <g id="ytick_2">
     <g id="line2d_21">
      <path d="M 38.904688 194.100024 
L 529.2 194.100024 
" clip-path="url(#p36effd2175)" style="fill: none; stroke: #b0b0b0; stroke-width: 0.8; stroke-linecap: square"/>
     </g>
     <g id="line2d_22">
      <g>
       <use xlink:href="#m564524cf69" x="38.904688" y="194.100024" style="stroke: #000000; stroke-width: 0.8"/>
      </g>
     </g>
     <g id="text_11">
      <!-- −15 -->
      <g transform="translate(10.8 197.899243) scale(0.1 -0.1)">
       <use xlink:href="#DejaVuSans-2212"/>
       <use xlink:href="#DejaVuSans-31" x="83.789062"/>
       <use xlink:href="#DejaVuSans-35" x="147.412109"/>
      </g>
     </g>
    </g>
    <g id="ytick_3">
     <g id="line2d_23">
      <path d="M 38.904688 168.620329 
L 529.2 168.620329 
" clip-path="url(#p36effd2175)" style="fill: none; stroke: #b0b0b0; stroke-width: 0.8; stroke-linecap: square"/>
     </g>
     <g id="line2d_24">
      <g>
       <use xlink:href="#m564524cf69" x="38.904688" y="168.620329" style="stroke: #000000; stroke-width: 0.8"/>
      </g>
     </g>
     <g id="text_12">
      <!-- −10 -->
      <g transform="translate(10.8 172.419547) scale(0.1 -0.1)">
       <use xlink:href="#DejaVuSans-2212"/>
       <use xlink:href="#DejaVuSans-31" x="83.789062"/>
       <use xlink:href="#DejaVuSans-30" x="147.412109"/>
      </g>
     </g>
    </g>
    <g id="ytick_4">
     <g id="line2d_25">
      <path d="M 38.904688 143.140633 
L 529.2 143.140633 
" clip-path="url(#p36effd2175)" style="fill: none; stroke: #b0b0b0; stroke-width: 0.8; stroke-linecap: square"/>
     </g>
     <g id="line2d_26">
      <g>
       <use xlink:href="#m564524cf69" x="38.904688" y="143.140633" style="stroke: #000000; stroke-width: 0.8"/>
      </g>
     </g>
     <g id="text_13">
      <!-- −5 -->
      <g transform="translate(17.1625 146.939852) scale(0.1 -0.1)">
       <use xlink:href="#DejaVuSans-2212"/>
       <use xlink:href="#DejaVuSans-35" x="83.789062"/>
      </g>
     </g>
    </g>
    <g id="ytick_5">
     <g id="line2d_27">
      <path d="M 38.904688 117.660937 
L 529.2 117.660937 
" clip-path="url(#p36effd2175)" style="fill: none; stroke: #b0b0b0; stroke-width: 0.8; stroke-linecap: square"/>
     </g>
     <g id="line2d_28">
      <g>
       <use xlink:href="#m564524cf69" x="38.904688" y="117.660937" style="stroke: #000000; stroke-width: 0.8"/>
      </g>
     </g>
     <g id="text_14">
      <!-- 0 -->
      <g transform="translate(25.542188 121.460156) scale(0.1 -0.1)">
       <use xlink:href="#DejaVuSans-30"/>
      </g>
     </g>
    </g>
    <g id="ytick_6">
     <g id="line2d_29">
      <path d="M 38.904688 92.181242 
L 529.2 92.181242 
" clip-path="url(#p36effd2175)" style="fill: none; stroke: #b0b0b0; stroke-width: 0.8; stroke-linecap: square"/>
     </g>
     <g id="line2d_30">
      <g>
       <use xlink:href="#m564524cf69" x="38.904688" y="92.181242" style="stroke: #000000; stroke-width: 0.8"/>
      </g>
     </g>
     <g id="text_15">
      <!-- 5 -->
      <g transform="translate(25.542188 95.980461) scale(0.1 -0.1)">
       <use xlink:href="#DejaVuSans-35"/>
      </g>
     </g>
    </g>
    <g id="ytick_7">
     <g id="line2d_31">
      <path d="M 38.904688 66.701546 
L 529.2 66.701546 
" clip-path="url(#p36effd2175)" style="fill: none; stroke: #b0b0b0; stroke-width: 0.8; stroke-linecap: square"/>
     </g>
     <g id="line2d_32">
      <g>
       <use xlink:href="#m564524cf69" x="38.904688" y="66.701546" style="stroke: #000000; stroke-width: 0.8"/>
      </g>
     </g>
     <g id="text_16">
      <!-- 10 -->
      <g transform="translate(19.179688 70.500765) scale(0.1 -0.1)">
       <use xlink:href="#DejaVuSans-31"/>
       <use xlink:href="#DejaVuSans-30" x="63.623047"/>
      </g>
     </g>
    </g>
    <g id="ytick_8">
     <g id="line2d_33">
      <path d="M 38.904688 41.221851 
L 529.2 41.221851 
" clip-path="url(#p36effd2175)" style="fill: none; stroke: #b0b0b0; stroke-width: 0.8; stroke-linecap: square"/>
     </g>
     <g id="line2d_34">
      <g>
       <use xlink:href="#m564524cf69" x="38.904688" y="41.221851" style="stroke: #000000; stroke-width: 0.8"/>
      </g>
     </g>
     <g id="text_17">
      <!-- 15 -->
      <g transform="translate(19.179688 45.021069) scale(0.1 -0.1)">
       <use xlink:href="#DejaVuSans-31"/>
       <use xlink:href="#DejaVuSans-35" x="63.623047"/>
      </g>
     </g>
    </g>
    <g id="ytick_9">
     <g id="line2d_35">
      <path d="M 38.904688 15.742155 
L 529.2 15.742155 
" clip-path="url(#p36effd2175)" style="fill: none; stroke: #b0b0b0; stroke-width: 0.8; stroke-linecap: square"/>
     </g>
     <g id="line2d_36">
      <g>
       <use xlink:href="#m564524cf69" x="38.904688" y="15.742155" style="stroke: #000000; stroke-width: 0.8"/>
      </g>
     </g>
     <g id="text_18">
      <!-- 20 -->
      <g transform="translate(19.179688 19.541374) scale(0.1 -0.1)">
       <use xlink:href="#DejaVuSans-32"/>
       <use xlink:href="#DejaVuSans-30" x="63.623047"/>
      </g>
     </g>
    </g>
   </g>
   <g id="line2d_37">
    <path d="M 61.190838 140.043945 
L 61.637007 125.034573 
L 62.083176 116.524429 
L 62.529346 115.779341 
L 62.975515 122.83682 
L 63.421684 136.521925 
L 65.206361 206.748977 
L 65.65253 214.496127 
L 66.098699 214.807244 
L 66.544868 207.708785 
L 66.991037 194.341578 
L 68.775714 125.98411 
L 69.221883 118.049348 
L 69.668052 117.153256 
L 70.114222 123.354734 
L 70.560391 135.678529 
L 72.345068 202.555001 
L 72.791237 211.465024 
L 73.237406 213.823586 
L 73.683575 209.365118 
L 74.129744 198.787988 
L 75.022083 166.079125 
L 75.914421 133.550426 
L 76.36059 123.048112 
L 76.806759 118.462496 
L 77.252929 120.35774 
L 77.699098 128.40727 
L 78.591436 157.687023 
L 79.483774 190.7479 
L 79.929944 203.166522 
L 80.376113 210.533867 
L 80.822282 211.93077 
L 81.268451 207.237179 
L 81.71462 197.132465 
L 82.606959 166.691595 
L 83.499297 136.101442 
L 83.945466 125.713393 
L 84.391635 120.478491 
L 84.837805 121.003448 
L 85.283974 127.157203 
L 85.730143 138.101944 
L 87.51482 196.731452 
L 87.960989 205.862236 
L 88.407158 209.986545 
L 88.853327 208.654989 
L 89.299496 202.087739 
L 89.745666 191.134432 
L 91.530342 134.575952 
L 91.976512 125.771254 
L 92.422681 121.665749 
L 92.86885 122.682415 
L 93.315019 128.640216 
L 93.761188 138.787513 
L 95.992034 202.200406 
L 96.438203 207.042299 
L 96.884373 207.117359 
L 97.330542 202.467531 
L 97.776711 193.659502 
L 98.669049 167.968367 
L 99.561388 141.190577 
L 100.007557 131.044789 
L 100.453726 124.573962 
L 100.899895 122.423114 
L 101.346064 124.763736 
L 101.792233 131.285637 
L 102.684572 153.529022 
L 104.023079 190.879836 
L 104.469249 199.151529 
L 104.915418 203.715639 
L 105.361587 204.141747 
L 105.807756 200.428555 
L 106.253925 192.994592 
L 107.146264 170.392569 
L 108.484771 134.928397 
L 108.93094 127.372455 
L 109.37711 123.336342 
L 109.823279 123.158945 
L 110.269448 126.798745 
L 110.715617 133.846391 
L 111.607955 155.004031 
L 112.946463 188.286069 
L 113.392632 195.541834 
L 113.838801 199.591773 
L 114.284971 200.091107 
L 114.73114 197.028222 
L 115.177309 190.718027 
L 116.069647 171.004653 
L 117.408155 137.871197 
L 117.854324 129.787339 
L 118.300493 124.460597 
L 118.746662 122.30948 
L 119.192832 123.467041 
L 119.639001 127.77607 
L 120.08517 134.809619 
L 120.977508 154.271328 
L 122.316016 183.776286 
L 122.762185 190.306159 
L 123.208354 194.154068 
L 123.654523 195.025069 
L 124.100693 192.874814 
L 124.546862 187.907063 
L 125.4392 171.420742 
L 127.223877 132.681288 
L 127.670046 126.232739 
L 128.116215 122.226016 
L 128.562384 120.924398 
L 129.008554 122.376445 
L 129.454723 126.417676 
L 129.900892 132.688581 
L 130.79323 149.711811 
L 132.131738 176.149361 
L 132.577907 182.512691 
L 133.024076 186.786277 
L 133.470245 188.67475 
L 133.916414 188.061967 
L 134.362584 185.014758 
L 134.808753 179.773336 
L 135.701091 164.395129 
L 137.485768 130.275752 
L 137.931937 124.444788 
L 138.378106 120.575225 
L 138.824275 118.886709 
L 139.270445 119.446711 
L 139.716614 122.170093 
L 140.162783 126.828946 
L 141.055121 140.449516 
L 142.839798 170.813254 
L 143.285967 176.102447 
L 143.732136 179.687443 
L 144.178306 181.356075 
L 144.624475 181.021144 
L 145.070644 178.722382 
L 145.516813 174.620411 
L 146.409152 162.16761 
L 148.639997 125.79145 
L 149.086167 121.024457 
L 149.532336 117.837737 
L 149.978505 116.378624 
L 150.424674 116.691353 
L 150.870843 118.717527 
L 151.317013 122.302467 
L 152.209351 133.122655 
L 154.440197 164.850006 
L 154.886366 169.110002 
L 155.332535 172.028355 
L 155.778704 173.462818 
L 156.224874 173.353113 
L 156.671043 171.721618 
L 157.117212 168.669668 
L 158.00955 159.054897 
L 160.686565 122.691501 
L 161.132735 118.653736 
L 161.578904 115.798825 
L 162.025073 114.234589 
L 162.471242 114.004319 
L 162.917411 115.086765 
L 163.36358 117.399221 
L 163.80975 120.803414 
L 164.702088 130.107655 
L 166.932934 156.426173 
L 167.825272 163.159446 
L 168.271441 165.01704 
L 168.717611 165.763739 
L 169.16378 165.382492 
L 169.609949 163.904835 
L 170.056118 161.407899 
L 170.948456 153.862307 
L 172.286964 138.803428 
L 173.625472 124.102099 
L 174.51781 116.965556 
L 174.963979 114.599806 
L 175.410148 113.139524 
L 175.856317 112.617354 
L 176.302487 113.029559 
L 176.748656 114.337472 
L 177.194825 116.470208 
L 178.087163 122.789297 
L 179.425671 135.317642 
L 180.764178 147.754891 
L 181.656517 154.072653 
L 182.102686 156.311333 
L 182.548855 157.843037 
L 182.995024 158.629366 
L 183.441194 158.657865 
L 183.887363 157.941439 
L 184.333532 156.516956 
L 184.779701 154.443111 
L 185.672039 148.674235 
L 187.010547 137.532255 
L 188.349055 126.192709 
L 189.241393 119.978483 
L 190.133731 115.619561 
L 190.5799 114.269211 
L 191.02607 113.508569 
L 191.472239 113.343619 
L 191.918408 113.763512 
L 192.364577 114.741572 
L 192.810746 116.236703 
L 193.703085 120.552411 
L 195.041592 129.260017 
L 196.826269 141.618941 
L 197.718607 146.728565 
L 198.610946 150.486595 
L 199.057115 151.762129 
L 199.503284 152.605303 
L 199.949453 153.007251 
L 200.395622 152.969744 
L 200.841792 152.504674 
L 201.287961 151.633305 
L 201.73413 150.385353 
L 202.626468 146.914269 
L 203.964976 139.98507 
L 206.641991 125.194051 
L 207.534329 121.412428 
L 208.426668 118.67312 
L 208.872837 117.742742 
L 209.319006 117.118589 
L 209.765175 116.803063 
L 210.211344 116.792748 
L 210.657514 117.078773 
L 211.103683 117.647254 
L 211.549852 118.479806 
L 212.44219 120.844549 
L 213.334529 123.958465 
L 215.119205 131.432512 
L 216.903882 138.883324 
L 218.24239 143.414513 
L 219.134728 145.645102 
L 220.027066 147.141523 
L 220.473236 147.602336 
L 220.919405 147.870916 
L 221.365574 147.950155 
L 221.811743 147.845413 
L 222.257912 147.564297 
L 223.150251 146.513142 
L 224.042589 144.893021 
L 224.934927 142.81982 
L 226.273435 139.139532 
L 229.842788 128.933474 
L 231.181296 125.93027 
L 232.073634 124.357276 
L 232.965973 123.162549 
L 233.858311 122.355481 
L 234.750649 121.929218 
L 235.642988 121.86303 
L 236.535326 122.124958 
L 237.427664 122.674551 
L 238.320003 123.465573 
L 239.65851 124.996212 
L 241.889356 128.051325 
L 244.566371 131.704975 
L 246.351048 133.720945 
L 247.689556 134.897058 
L 249.028063 135.749769 
L 250.366571 136.272353 
L 251.705078 136.476668 
L 253.043586 136.388447 
L 254.382093 136.042766 
L 255.720601 135.479975 
L 257.505278 134.464718 
L 259.736123 132.904683 
L 264.197815 129.400339 
L 268.213338 126.359699 
L 271.336522 124.250847 
L 274.459706 122.384786 
L 278.02906 120.499308 
L 283.38309 117.967115 
L 290.521797 114.598512 
L 294.09115 112.684271 
L 297.214335 110.785053 
L 300.337519 108.640861 
L 303.906872 105.921536 
L 309.707072 101.450865 
L 311.937918 100.070448 
L 313.722594 99.279109 
L 315.061102 98.933428 
L 316.399609 98.845207 
L 317.738117 99.049522 
L 319.076624 99.572106 
L 320.415132 100.424817 
L 321.75364 101.60093 
L 323.092147 103.070674 
L 324.876824 105.385324 
L 328.892346 110.873339 
L 330.230854 112.278947 
L 331.123192 112.955294 
L 332.015531 113.366534 
L 332.907869 113.468994 
L 333.800207 113.226125 
L 334.692546 112.611243 
L 335.584884 111.610239 
L 336.477222 110.224108 
L 337.369561 108.471116 
L 338.708068 105.240388 
L 340.492745 100.16007 
L 343.16976 92.502055 
L 344.062099 90.428854 
L 344.954437 88.808733 
L 345.846775 87.757578 
L 346.292944 87.476462 
L 346.739114 87.37172 
L 347.185283 87.450959 
L 347.631452 87.719539 
L 348.077621 88.180352 
L 348.96996 89.676773 
L 349.862298 91.907362 
L 350.754636 94.790831 
L 352.093144 100.04252 
L 355.216328 112.999089 
L 356.108666 115.767759 
L 357.001005 117.674621 
L 357.447174 118.243102 
L 357.893343 118.529127 
L 358.339512 118.518812 
L 358.785681 118.203286 
L 359.231851 117.579133 
L 359.67802 116.648755 
L 360.570358 113.909447 
L 361.462697 110.127824 
L 362.801204 103.049003 
L 365.03205 90.539236 
L 365.924388 86.523963 
L 366.816727 83.68857 
L 367.262896 82.817201 
L 367.709065 82.352131 
L 368.155234 82.314624 
L 368.601403 82.716572 
L 369.047573 83.559746 
L 369.493742 84.83528 
L 370.38608 88.59331 
L 371.278419 93.702934 
L 373.063095 106.061858 
L 374.401603 114.769464 
L 375.293941 119.085172 
L 375.74011 120.580303 
L 376.18628 121.558363 
L 376.632449 121.978256 
L 377.078618 121.813306 
L 377.524787 121.052664 
L 377.970956 119.702314 
L 378.417125 117.785625 
L 379.309464 112.433357 
L 380.647971 101.702357 
L 382.432648 86.64764 
L 383.324986 80.878764 
L 383.771156 78.804919 
L 384.217325 77.380436 
L 384.663494 76.66401 
L 385.109663 76.692509 
L 385.555832 77.478838 
L 386.002002 79.010542 
L 386.448171 81.249222 
L 387.340509 87.566984 
L 388.679017 100.004233 
L 390.017524 112.532578 
L 390.909862 118.851667 
L 391.356032 120.984403 
L 391.802201 122.292316 
L 392.24837 122.704521 
L 392.694539 122.182351 
L 393.140708 120.722069 
L 393.586878 118.356319 
L 394.479216 111.219776 
L 395.817723 96.518447 
L 397.156231 81.459568 
L 398.048569 73.913976 
L 398.494739 71.41704 
L 398.940908 69.939383 
L 399.387077 69.558136 
L 399.833246 70.304835 
L 400.279415 72.162429 
L 400.725584 75.064337 
L 401.617923 83.496889 
L 404.294938 114.518461 
L 404.741107 117.922654 
L 405.187276 120.23511 
L 405.633445 121.317556 
L 406.079615 121.087286 
L 406.525784 119.52305 
L 406.971953 116.668139 
L 407.418122 112.630374 
L 408.310461 101.737554 
L 410.541306 70.952022 
L 410.987476 66.652207 
L 411.433645 63.600257 
L 411.879814 61.968762 
L 412.325983 61.859057 
L 412.772152 63.29352 
L 413.218322 66.211873 
L 413.664491 70.471869 
L 414.556829 82.0738 
L 416.341506 108.115039 
L 416.787675 113.019408 
L 417.233844 116.604348 
L 417.680013 118.630522 
L 418.126183 118.943251 
L 418.572352 117.484138 
L 419.018521 114.297418 
L 419.46469 109.530425 
L 420.357028 96.320119 
L 422.141705 66.338463 
L 422.587874 60.701464 
L 423.034043 56.599493 
L 423.480213 54.300731 
L 423.926382 53.9658 
L 424.372551 55.634432 
L 424.81872 59.219428 
L 425.264889 64.508621 
L 426.157228 78.794959 
L 427.495735 102.250226 
L 427.941904 108.492929 
L 428.388074 113.151782 
L 428.834243 115.875164 
L 429.280412 116.435166 
L 429.726581 114.74665 
L 430.17275 110.877087 
L 430.61892 105.046123 
L 431.511258 89.062528 
L 432.849765 62.592302 
L 433.295935 55.548539 
L 433.742104 50.307117 
L 434.188273 47.259908 
L 434.634442 46.647125 
L 435.080611 48.535598 
L 435.526781 52.809184 
L 435.97295 59.172514 
L 436.865288 76.207439 
L 438.203796 102.633294 
L 438.649965 108.904199 
L 439.096134 112.94543 
L 439.542303 114.397477 
L 439.988472 113.095859 
L 440.434642 109.089136 
L 440.880811 102.640587 
L 441.773149 84.435731 
L 443.111657 54.7709 
L 443.557826 47.414812 
L 444.003995 42.447061 
L 444.450164 40.296806 
L 444.896333 41.167807 
L 445.342503 45.015716 
L 445.788672 51.545589 
L 446.68101 70.350868 
L 448.019518 100.512256 
L 448.465687 107.545805 
L 448.911856 111.854834 
L 449.358025 113.012395 
L 449.804194 110.861278 
L 450.250364 105.534536 
L 450.696533 97.450678 
L 451.588871 75.905361 
L 452.481209 53.556238 
L 452.927379 44.603848 
L 453.373548 38.293653 
L 453.819717 35.230768 
L 454.265886 35.730102 
L 454.712055 39.780041 
L 455.158224 47.035806 
L 456.050563 68.298193 
L 457.38907 101.475484 
L 457.83524 108.52313 
L 458.281409 112.16293 
L 458.727578 111.985533 
L 459.173747 107.94942 
L 459.619916 100.393478 
L 460.512255 77.793861 
L 461.850762 42.327283 
L 462.296931 34.89332 
L 462.743101 31.180128 
L 463.18927 31.606236 
L 463.635439 36.170346 
L 464.081608 44.442039 
L 464.973946 68.495147 
L 465.866285 94.081652 
L 466.312454 104.036238 
L 466.758623 110.558139 
L 467.204792 112.898761 
L 467.650962 110.747913 
L 468.097131 104.277086 
L 468.5433 94.131298 
L 470.774146 32.854344 
L 471.220315 28.204516 
L 471.666484 28.279576 
L 472.112653 33.121469 
L 472.558823 42.231389 
L 473.451161 68.88717 
L 474.343499 96.534362 
L 474.789668 106.681659 
L 475.235838 112.63946 
L 475.682007 113.656126 
L 476.128176 109.550621 
L 476.574345 100.745923 
L 477.466684 73.455545 
L 478.359022 44.187443 
L 478.805191 33.234136 
L 479.25136 26.666886 
L 479.697529 25.33533 
L 480.143699 29.459639 
L 480.589868 38.590423 
L 481.482206 67.057654 
L 482.374545 97.219931 
L 482.820714 108.164672 
L 483.266883 114.318427 
L 483.713052 114.843384 
L 484.159221 109.608482 
L 484.60539 99.220433 
L 485.497729 68.63028 
L 486.390067 38.18941 
L 486.836236 28.084696 
L 487.282405 23.391105 
L 487.728575 24.788008 
L 488.174744 32.155353 
L 488.620913 44.573975 
L 490.40559 106.914605 
L 490.851759 114.964135 
L 491.297928 116.859379 
L 491.744097 112.273763 
L 492.190266 101.771449 
L 493.082605 69.24275 
L 493.974943 36.533887 
L 494.421112 25.956757 
L 494.867282 21.498289 
L 495.313451 23.856851 
L 495.75962 32.766874 
L 496.651958 64.615275 
L 497.544297 99.643346 
L 497.990466 111.967141 
L 498.436635 118.168619 
L 498.882804 117.272527 
L 499.328973 109.337765 
L 499.775143 95.467894 
L 501.559819 27.61309 
L 502.005988 20.514631 
L 502.452158 20.825748 
L 502.898327 28.572898 
L 503.344496 42.643717 
L 505.129173 112.485055 
L 505.575342 119.542534 
L 506.021511 118.797446 
L 506.46768 110.287302 
L 506.913849 95.27793 
L 506.913849 95.27793 
" clip-path="url(#p36effd2175)" style="fill: none; stroke: #ff0000; stroke-linecap: square"/>
   </g>
   <g id="patch_3">
    <path d="M 38.904688 224.521875 
L 38.904688 10.8 
" style="fill: none; stroke: #000000; stroke-width: 0.8; stroke-linejoin: miter; stroke-linecap: square"/>
   </g>
   <g id="patch_4">
    <path d="M 529.2 224.521875 
L 529.2 10.8 
" style="fill: none; stroke: #000000; stroke-width: 0.8; stroke-linejoin: miter; stroke-linecap: square"/>
   </g>
   <g id="patch_5">
    <path d="M 38.904687 224.521875 
L 529.2 224.521875 
" style="fill: none; stroke: #000000; stroke-width: 0.8; stroke-linejoin: miter; stroke-linecap: square"/>
   </g>
   <g id="patch_6">
    <path d="M 38.904687 10.8 
L 529.2 10.8 
" style="fill: none; stroke: #000000; stroke-width: 0.8; stroke-linejoin: miter; stroke-linecap: square"/>
   </g>
  </g>
 </g>
 <defs>
  <clipPath id="p36effd2175">
   <rect x="38.904688" y="10.8" width="490.295313" height="213.721875"/>
  </clipPath>
 </defs>
</svg>
